<?xml version="1.0" encoding="UTF-8" standalone="no"?>
<!-- Created with Inkscape (http://www.inkscape.org/) -->

<svg
   xmlns:dc="http://purl.org/dc/elements/1.1/"
   xmlns:cc="http://creativecommons.org/ns#"
   xmlns:rdf="http://www.w3.org/1999/02/22-rdf-syntax-ns#"
   xmlns:svg="http://www.w3.org/2000/svg"
   xmlns="http://www.w3.org/2000/svg"
   xmlns:sodipodi="http://sodipodi.sourceforge.net/DTD/sodipodi-0.dtd"
   xmlns:inkscape="http://www.inkscape.org/namespaces/inkscape"
   version="1.1"
   id="svg3680"
   width="266.56"
   height="266.56"
   viewBox="0 0 266.56 266.56"
   sodipodi:docname="logo.svg"
   shape-rendering="crispEdges"
   inkscape:version="0.92.0 r15299">
  <metadata
     id="metadata3686">
    <rdf:RDF>
      <cc:Work
         rdf:about="">
        <dc:format>image/svg+xml</dc:format>
        <dc:type
           rdf:resource="http://purl.org/dc/dcmitype/StillImage" />
        <dc:title></dc:title>
      </cc:Work>
    </rdf:RDF>
  </metadata>
  <defs
     id="defs3684" />
  <sodipodi:namedview
     pagecolor="#ffffff"
     bordercolor="#666666"
     borderopacity="1"
     objecttolerance="10"
     gridtolerance="10"
     guidetolerance="10"
     inkscape:pageopacity="0"
     inkscape:pageshadow="2"
     inkscape:window-width="1366"
     inkscape:window-height="705"
     id="namedview3682"
     showgrid="false"
     showborder="false"
     inkscape:zoom="2.0108043"
     inkscape:cx="133.28"
     inkscape:cy="133.28"
     inkscape:window-x="-8"
     inkscape:window-y="-8"
     inkscape:window-maximized="1"
     inkscape:current-layer="svg3680" />
  <path
     style="fill:#ffffff;stroke-width:0.14328358"
     d="m 70.53284,186.69142 c -2.02641,-0.69701 -3.48495,-2.21321 -4.10707,-4.26945 -0.28526,-0.94282 -0.28676,-1.27816 -0.24922,-55.61123 l 0.0378,-54.662683 0.45753,-0.965839 c 0.54046,-1.140919 1.56499,-2.223366 2.6016,-2.748654 1.68079,-0.851723 -2.3848,-0.794512 56.6242,-0.796822 58.73182,-0.0023 54.77756,-0.05387 56.41738,0.735732 1.0066,0.484692 2.11847,1.609689 2.64211,2.673292 l 0.46912,0.952881 0.0378,19.66734 0.0378,19.667353 -6.83828,0.0372 -6.83828,0.0372 -0.67493,5.30072 c -0.37121,2.91539 -0.65847,5.31719 -0.63834,5.33731 0.0201,0.0201 3.40018,0.0366 7.51122,0.0366 h 7.47463 v 0.71641 0.71642 h -9.01671 -9.01671 l -0.15156,0.75224 c -0.0834,0.41373 -0.43424,2.1276 -0.77972,3.80861 -0.43099,2.09702 -0.57775,3.07545 -0.46755,3.11716 0.0883,0.0334 4.49672,0.0605 9.79643,0.06 l 9.63582,-7.4e-4 v 0.71642 0.71642 h -11.1706 -11.1706 l -0.1412,0.53731 c -0.47617,1.81203 -2.04712,8.79586 -1.99114,8.85184 0.0372,0.0372 5.55957,0.0676 12.27203,0.0676 h 12.20446 l -0.0373,20.02388 -0.0373,20.02388 -0.38356,0.91084 c -0.73378,1.74251 -2.37558,3.19095 -4.14739,3.65895 -0.84943,0.22436 -4.7405,0.24064 -55.2183,0.23099 -54.05906,-0.0103 -54.30827,-0.0117 -55.14417,-0.29921 z m 52.8066,-7.87373 c 0.29046,-0.0807 0.69345,-0.34317 0.89553,-0.58333 0.36279,-0.43115 0.36742,-0.46728 0.36742,-2.86905 v -2.43239 l -1.03881,-0.006 c -0.57134,-0.003 -1.31029,-0.0145 -1.64211,-0.0246 -1.03854,-0.0319 -1.8986,0.8398 -2.01404,2.04118 -0.0437,0.45456 -0.1379,0.72709 -0.25139,0.72709 -0.12698,0 -0.1971,-0.3431 -0.23338,-1.14202 -0.0644,-1.41766 -0.22075,-1.60979 -1.37832,-1.69352 -0.76522,-0.0554 -0.84902,-0.0321 -0.99763,0.27711 l -0.16224,0.33754 -0.01,-0.32923 c -0.009,-0.31171 -0.0569,-0.32695 -0.8964,-0.28657 l -0.8867,0.0427 -0.18517,0.71642 c -0.2347,0.90809 -0.23409,0.93134 0.0242,0.93134 0.17672,0 0.21493,0.25473 0.21493,1.43284 v 1.43283 h 0.8597 0.8597 v -1.44235 -1.44235 l 0.39403,0.0453 0.39403,0.0453 0.041,1.39701 0.041,1.39701 h 0.84424 0.84423 l 0.17636,-0.78805 c 0.097,-0.43344 0.22023,-0.78806 0.27385,-0.78806 0.0536,0 0.16937,0.15778 0.25724,0.35063 0.22286,0.48912 0.71863,0.77773 1.52608,0.88841 0.61761,0.0846 0.71762,0.0585 0.95467,-0.24986 0.26238,-0.34128 0.26482,-0.34157 0.26797,-0.0323 0.002,0.17169 -0.0981,0.41348 -0.22197,0.53732 -0.25295,0.25295 -1.13957,0.29844 -1.6957,0.087 -0.34125,-0.12975 -0.37301,-0.10244 -0.52125,0.44807 -0.0868,0.32243 -0.1048,0.63747 -0.04,0.70008 0.38076,0.36768 2.04382,0.52307 2.93853,0.27457 z m -1.61269,-3.51747 c -0.38909,-0.46881 0.46217,-1.03041 0.94919,-0.62622 0.11388,0.0945 0.20704,0.32513 0.20704,0.51249 0,0.29146 -0.0699,0.34067 -0.48395,0.34067 -0.26676,0 -0.56847,-0.10184 -0.67228,-0.22694 z m -18.33017,2.77022 1.4e-4,-0.75224 0.82372,-0.008 c 1.49896,-0.0154 2.32684,-0.77691 2.32744,-2.14078 5.7e-4,-1.3505 -0.72973,-2.20925 -1.98109,-2.32948 -0.66902,-0.0643 -0.72756,-0.0429 -0.93628,0.34239 l -0.22264,0.41097 -0.006,-0.40087 c -0.006,-0.39985 -0.008,-0.40076 -0.89244,-0.35821 l -0.8867,0.0427 -0.18166,0.71423 c -0.15476,0.60846 -0.15076,0.73152 0.027,0.831 0.16818,0.0941 0.20866,0.53236 0.20866,2.2589 l 10e-6,2.14213 h 0.8597 0.85971 l 1.4e-4,-0.75224 z m 0.23278,-2.47409 c -0.12812,-0.12812 -0.23294,-0.42177 -0.23294,-0.65256 0,-0.37834 0.0458,-0.4194 0.46567,-0.41742 0.67201,0.003 0.8523,0.16778 0.79869,0.72925 -0.0386,0.40393 -0.11025,0.49386 -0.42247,0.53006 -0.20801,0.0241 -0.4801,-0.0605 -0.60895,-0.18933 z m 5.212,2.47409 1.4e-4,-0.75224 0.82372,-0.008 c 1.49896,-0.0154 2.32684,-0.77691 2.32743,-2.14078 5.8e-4,-1.3505 -0.72972,-2.20925 -1.98109,-2.32948 -0.66902,-0.0643 -0.72756,-0.0429 -0.93628,0.34239 l -0.22263,0.41097 -0.006,-0.40087 c -0.006,-0.39985 -0.008,-0.40076 -0.89243,-0.35821 l -0.88671,0.0427 -0.18166,0.71423 c -0.15475,0.60846 -0.15075,0.73152 0.027,0.831 0.16817,0.0941 0.20865,0.53236 0.20865,2.2589 l 2e-5,2.14213 h 0.8597 0.8597 l 1.5e-4,-0.75224 z m 0.23277,-2.47409 c -0.12812,-0.12812 -0.23294,-0.42177 -0.23294,-0.65256 0,-0.37834 0.0458,-0.4194 0.46567,-0.41742 0.67202,0.003 0.8523,0.16778 0.79869,0.72925 -0.0386,0.40393 -0.11024,0.49386 -0.42246,0.53006 -0.20801,0.0241 -0.4801,-0.0605 -0.60896,-0.18933 z m 32.72245,2.47409 1.4e-4,-0.75224 0.82372,-0.008 c 1.49896,-0.0154 2.32684,-0.77691 2.32744,-2.14078 5.7e-4,-1.3505 -0.72973,-2.20925 -1.98109,-2.32948 -0.66902,-0.0643 -0.72756,-0.0429 -0.93628,0.34239 l -0.22264,0.41097 -0.006,-0.40087 c -0.006,-0.39985 -0.008,-0.40076 -0.89244,-0.35821 l -0.8867,0.0427 -0.18166,0.71423 c -0.15476,0.60846 -0.15076,0.73152 0.027,0.831 0.16818,0.0941 0.20866,0.53236 0.20866,2.2589 l 1e-5,2.14213 h 0.8597 0.8597 l 1.5e-4,-0.75224 z m 0.23277,-2.47409 c -0.12811,-0.12812 -0.23294,-0.42177 -0.23294,-0.65256 0,-0.37834 0.0458,-0.4194 0.46568,-0.41742 0.67201,0.003 0.8523,0.16778 0.79868,0.72925 -0.0386,0.40393 -0.11024,0.49386 -0.42246,0.53006 -0.20801,0.0241 -0.4801,-0.0605 -0.60896,-0.18933 z m -52.11138,1.58363 c 0.93881,-0.48548 1.30093,-1.8233 0.74173,-2.74032 -0.18877,-0.30956 -0.55492,-0.56383 -1.21737,-0.84538 -0.52108,-0.22145 -0.94741,-0.48969 -0.94741,-0.59608 0,-0.26269 0.90119,-0.25343 1.41948,0.0146 l 0.40226,0.20802 0.28476,-0.97616 0.28476,-0.97616 -0.8016,-0.14697 c -0.46204,-0.0847 -0.82196,-0.0928 -0.84966,-0.019 -0.0264,0.0704 -0.11,0.0897 -0.1857,0.0429 -0.0757,-0.0468 -0.47156,-0.0392 -0.87967,0.017 -1.05926,0.14568 -1.6806,0.77673 -1.6806,1.70685 0,1.04074 0.26931,1.40154 1.43528,1.92288 1.04055,0.46527 1.23217,0.76792 0.53859,0.85064 -0.20252,0.0241 -0.60738,-0.056 -0.8997,-0.17816 -0.29231,-0.12213 -0.58263,-0.19045 -0.64514,-0.15182 -0.16761,0.10359 -0.46948,1.46589 -0.363,1.63817 0.0502,0.0813 0.39445,0.24484 0.7649,0.36344 0.8,0.25612 1.95887,0.19618 2.59809,-0.13437 z m 9.61615,0.21047 c 0.27931,-0.0776 0.72863,-0.36888 0.99848,-0.6473 0.44613,-0.46028 0.49578,-0.59714 0.54727,-1.50842 l 0.0566,-1.0022 -0.62858,-0.62859 c -0.50213,-0.50213 -0.76603,-0.64919 -1.31187,-0.73104 -1.55223,-0.23277 -2.82053,0.80595 -2.82053,2.30998 0,1.63407 1.48557,2.67235 3.1586,2.20757 z m -1.26726,-1.74866 c -0.40191,-0.40191 -0.0991,-1.11762 0.47284,-1.11762 0.40907,0 0.64478,0.26677 0.64478,0.72975 0,0.52773 -0.72585,0.77963 -1.11762,0.38787 z m 57.77934,1.68854 c 0.55566,-0.23216 0.79499,-0.5961 0.79499,-1.2089 0,-0.68024 -0.13453,-0.87158 -0.87758,-1.24811 -0.7221,-0.36591 -0.94615,-0.72282 -0.37615,-0.5992 0.17731,0.0385 0.42147,0.11207 0.54257,0.16359 0.28817,0.12259 0.64968,-1.06074 0.37795,-1.23718 -0.4152,-0.26959 -1.33335,-0.41737 -1.87721,-0.30214 -0.62607,0.13266 -1.22839,0.82536 -1.22839,1.41272 0,0.47102 0.48945,1.00816 1.16489,1.27842 0.44978,0.17997 0.55648,0.27955 0.43244,0.40359 -0.12404,0.12404 -0.28206,0.12223 -0.64043,-0.007 -0.64929,-0.23479 -0.63306,-0.24352 -0.74162,0.39903 -0.0531,0.31408 -0.10709,0.62035 -0.12006,0.68059 -0.0281,0.13066 1.10019,0.43989 1.66461,0.45621 0.21925,0.006 0.61704,-0.0797 0.88399,-0.19126 z m 3.72537,0 c 0.55566,-0.23216 0.79499,-0.5961 0.79499,-1.2089 0,-0.68024 -0.13453,-0.87158 -0.87758,-1.24811 -0.7221,-0.36591 -0.94615,-0.72282 -0.37615,-0.5992 0.17732,0.0385 0.42147,0.11207 0.54257,0.16359 0.28817,0.12259 0.64968,-1.06074 0.37796,-1.23718 -0.41521,-0.26959 -1.33335,-0.41737 -1.87721,-0.30214 -0.62607,0.13266 -1.22839,0.82536 -1.22839,1.41272 0,0.47102 0.48944,1.00816 1.16488,1.27842 0.44978,0.17997 0.55648,0.27955 0.43244,0.40359 -0.12404,0.12404 -0.28206,0.12223 -0.64042,-0.007 -0.6493,-0.23479 -0.63307,-0.24352 -0.74163,0.39903 -0.0531,0.31408 -0.10709,0.62035 -0.12005,0.68059 -0.0281,0.13066 1.10018,0.43989 1.6646,0.45621 0.21925,0.006 0.61705,-0.0797 0.88399,-0.19126 z m -66.54829,-1.38284 v -1.44235 l 0.39403,0.0453 0.39403,0.0453 0.0411,1.40371 0.0411,1.40372 0.88144,-0.0425 0.88143,-0.0425 0.18516,-0.71641 c 0.2347,-0.9081 0.23409,-0.93135 -0.0242,-0.93135 -0.1711,0 -0.21492,-0.20992 -0.21492,-1.02957 0,-1.37865 -0.26649,-1.69281 -1.43592,-1.69281 -0.70134,0 -0.83416,0.0442 -0.96831,0.32238 -0.12438,0.25789 -0.15742,0.0572 -0.16518,-1.00298 l -0.01,-1.32537 h -0.84953 -0.84954 l -0.22509,0.77429 c -0.27537,0.94722 -0.27534,0.94511 -0.0102,0.94511 0.18236,0 0.21492,0.35821 0.21492,2.36418 v 2.36418 h 0.85971 0.8597 z m 21.20898,0.8334 c 0.0865,-0.33492 0.19008,-0.72179 0.2301,-0.8597 0.0473,-0.16311 -0.006,-0.25075 -0.15181,-0.25075 -0.18816,0 -0.22458,-0.22075 -0.22458,-1.36119 v -1.36119 h -0.90674 -0.90673 l -0.17182,0.74434 c -0.14755,0.63922 -0.1409,0.76165 0.047,0.86682 0.17219,0.0964 0.21885,0.41112 0.21885,1.47655 v 1.35408 h 0.85417 0.85418 z m 19.57911,-0.1791 c 0.28688,-1.10805 0.31436,-1.07463 -0.88361,-1.07463 -0.8597,0 -1.07463,-0.043 -1.07463,-0.21493 0,-0.16887 0.19839,-0.21492 0.92582,-0.21492 h 0.92582 l 0.15588,-0.60896 c 0.0857,-0.33492 0.18291,-0.68955 0.21595,-0.78806 0.0447,-0.13332 -0.23176,-0.1791 -1.0817,-0.1791 -0.91938,0 -1.14177,-0.0419 -1.14177,-0.21493 0,-0.17018 0.2049,-0.21492 0.98434,-0.21492 h 0.98435 l 0.17199,-0.87421 c 0.0946,-0.48082 0.2066,-0.9644 0.2489,-1.07463 0.0605,-0.15776 -0.10324,-0.20041 -0.76947,-0.20041 -0.46551,0 -0.90799,0.0616 -0.9833,0.13692 -0.0753,0.0753 -0.68016,0.1559 -1.34411,0.1791 -1.34045,0.0468 -1.24952,-0.0318 -1.49776,1.29592 -0.0808,0.43243 -0.0572,0.53731 0.12096,0.53731 0.18988,0 0.22142,0.30674 0.22142,2.15353 v 2.15354 l 1.81771,-0.0401 1.81771,-0.0401 z m 2.7152,0.21492 c 0.12612,-0.31522 0.28548,-0.57313 0.35413,-0.57313 0.0686,0 0.25639,0.25791 0.41721,0.57313 l 0.29239,0.57314 h 0.99706 0.99706 l -0.7134,-1.12369 c -0.39238,-0.61802 -0.7128,-1.21444 -0.71205,-1.32537 7.2e-4,-0.11093 0.25866,-0.60727 0.57313,-1.10297 0.31448,-0.49571 0.57178,-0.93093 0.57178,-0.96716 0,-0.0362 -0.44717,-0.0659 -0.99371,-0.0659 h -0.99371 l -0.18135,0.50149 c -0.0997,0.27583 -0.21991,0.5015 -0.26705,0.5015 -0.0471,0 -0.16732,-0.22567 -0.26706,-0.5015 l -0.18134,-0.50149 h -1.07381 c -0.82143,0 -1.04829,0.0421 -0.96525,0.17911 0.0597,0.0985 0.35366,0.55984 0.65323,1.0252 0.29957,0.46535 0.54467,0.90853 0.54467,0.98484 0,0.0763 -0.29014,0.61666 -0.64477,1.20077 -0.35463,0.58412 -0.64478,1.09199 -0.64478,1.1286 0,0.0366 0.45187,0.0666 1.00415,0.0666 h 1.00414 z m 10.51462,-0.61612 c 0,-1.22354 0.12041,-1.53313 0.59627,-1.53313 0.24302,0 0.31563,-0.16947 0.62924,-1.46866 0.11278,-0.46725 -0.13412,-0.5212 -0.80277,-0.17542 -0.24232,0.1253 -0.42274,0.15588 -0.42274,0.0716 0,-0.0849 -0.38263,-0.14696 -0.90673,-0.14696 h -0.90674 l -0.17181,0.74434 c -0.14755,0.63922 -0.14091,0.76165 0.047,0.86682 0.1722,0.0964 0.21885,0.41112 0.21885,1.47655 v 1.35408 h 0.8597 0.8597 z m 5.22921,1.02274 c 0.0392,-0.0392 0.16063,-0.36805 0.26977,-0.73071 l 0.19844,-0.65938 -0.9502,0.0751 c -0.72944,0.0576 -1.01678,0.0231 -1.23677,-0.14849 -0.26555,-0.20715 -0.18938,-0.22388 1.0388,-0.2281 l 1.32538,-0.005 v -0.55195 c 0,-0.61711 -0.4142,-1.32847 -1.04612,-1.79667 -0.54548,-0.40415 -1.84331,-0.41093 -2.52093,-0.0132 -0.9406,0.55212 -1.29115,1.89114 -0.76706,2.93005 0.26388,0.52309 0.90374,0.9719 1.66047,1.16467 0.46286,0.11792 1.89958,0.0919 2.02822,-0.0368 z m -2.18784,-2.72474 c 0.10521,-0.31564 0.52141,-0.48663 0.78294,-0.32165 0.47274,0.29819 0.37776,0.49052 -0.24222,0.49052 -0.39463,0 -0.57793,-0.0573 -0.54072,-0.16887 z m -35.8505,-2.41024 c 0.0517,-0.19701 0.13869,-0.53865 0.19334,-0.75919 l 0.0994,-0.40098 -0.89024,0.0428 c -0.96732,0.0465 -0.88031,-0.0392 -1.17755,1.16018 l -0.0994,0.40098 0.89023,-0.0428 c 0.81288,-0.0391 0.8984,-0.0739 0.98421,-0.40099 z m -0.93415,-27.09614 c 1.92654,-0.23609 3.27841,-0.62348 4.87164,-1.396 4.42456,-2.14536 6.80061,-5.96969 6.80489,-10.9527 0.002,-2.86833 -0.91964,-5.31007 -2.78438,-7.37311 l -0.67998,-0.75228 1.86397,-6.62682 c 1.02519,-3.64475 1.8369,-6.65394 1.80382,-6.68707 -0.061,-0.0611 -11.28014,-2.25505 -11.93082,-2.33311 -0.30246,-0.0363 -0.38362,0.0462 -0.55754,0.56649 l -0.20354,0.60895 h -1.61705 c -6.10338,0 -10.6392,3.07353 -11.99226,8.12609 -0.42333,1.58079 -0.42738,4.53246 -0.008,6.07955 0.36796,1.35852 1.01818,2.66612 1.85808,3.73659 l 0.64325,0.81983 -1.67231,6.12652 c -1.57735,5.77858 -1.65771,6.13726 -1.41498,6.31561 0.14154,0.104 1.15547,0.63857 2.25318,1.18792 4.3316,2.16776 8.72963,3.04773 12.76237,2.55354 z m 37.91377,-7.47102 1.64223,-7.05672 -1.04368,-0.0418 c -0.69441,-0.0279 -1.04485,-0.0998 -1.0472,-0.21493 -0.002,-0.0952 0.48294,-1.94621 1.07753,-4.11337 0.59458,-2.16717 1.12006,-4.11762 1.16771,-4.33433 l 0.0866,-0.39403 h -0.99671 -0.99672 l 1.26218,-5.4806 c 0.69419,-3.01433 1.30302,-5.69015 1.35296,-5.94627 l 0.0908,-0.46567 h -6.45795 -6.45796 l -0.17172,0.57313 -0.17171,0.57314 h -6.19919 -6.19919 l -0.37054,1.61194 c -0.20379,0.88657 -0.90651,3.98149 -1.56161,6.87761 l -1.19109,5.26567 h 1.47901 1.47902 v 10.10149 10.1015 h 10.79249 10.79249 z"
     id="path3690"
     inkscape:connector-curvature="0" />
</svg>
